<svg width="30" height="31" viewBox="0 0 30 31" fill="none" xmlns="http://www.w3.org/2000/svg">
<path d="M16.6445 2.50585C16.365 2.48417 16.0774 2.51682 15.7949 2.61132C14.6649 2.98932 14.0536 4.21374 14.4316 5.34374L15.3242 8.01171L10.2363 9.71288L9.38279 7.16015C9.00479 6.03015 7.78036 5.42082 6.65036 5.79882C5.51936 6.17682 4.91104 7.39929 5.28904 8.52929L6.14255 11.082L3.47458 11.9746C2.34458 12.3526 1.7333 13.5751 2.1113 14.7051C2.4893 15.8351 3.71372 16.4464 4.84372 16.0684L7.51169 15.1758L9.21286 20.2637L6.66013 21.1172C5.53013 21.4952 4.9208 22.7196 5.2988 23.8496C5.6768 24.9806 6.89927 25.5889 8.02927 25.2109L10.582 24.3574L11.4746 27.0254C11.8526 28.1554 13.0751 28.7667 14.2051 28.3887C15.3351 28.0107 15.9453 26.7862 15.5683 25.6562L14.6758 22.9883L19.7636 21.2851L20.6172 23.8398C20.9952 24.9698 22.2196 25.5792 23.3496 25.2012C24.4806 24.8232 25.0899 23.6007 24.7129 22.4707L23.8574 19.916L26.5254 19.0234C27.6554 18.6454 28.2666 17.423 27.8886 16.293C27.5106 15.163 26.2862 14.5536 25.1562 14.9316L22.4883 15.8242L20.7871 10.7363L23.3398 9.88281C24.4698 9.50481 25.0791 8.28038 24.7011 7.15038C24.3231 6.02038 23.1007 5.41106 21.9707 5.78906L19.4179 6.64257L18.5254 3.9746C18.2419 3.1271 17.4829 2.57092 16.6445 2.50585ZM16.6933 12.1055L18.3945 17.1934L13.3066 18.8945L11.6054 13.8066L16.6933 12.1055Z" fill="url(#paint0_linear_7_23)"/>
<defs>
<linearGradient id="paint0_linear_7_23" x1="15" y1="2.49942" x2="15" y2="28.5005" gradientUnits="userSpaceOnUse">
<stop stop-color="#014F86"/>
<stop offset="0.536458" stop-color="#2A6F97"/>
<stop offset="1" stop-color="#2C7DA0"/>
</linearGradient>
</defs>
</svg>
